<svg width="18" height="19" viewBox="0 0 18 19" fill="none" xmlns="http://www.w3.org/2000/svg">
<path d="M8.6794 0.921509C3.88403 0.921509 0 5.06262 0 10.17C0 14.257 2.48665 17.7228 5.93454 18.9448C6.36851 19.0318 6.52764 18.7456 6.52764 18.5001C6.52764 18.2805 6.5204 17.6985 6.51679 16.9275C4.10247 17.4852 3.59327 15.6868 3.59327 15.6868C3.19836 14.6193 2.62769 14.3339 2.62769 14.3339C1.84148 13.7605 2.68845 13.7723 2.68845 13.7723C3.56 13.8366 4.01784 14.7252 4.01784 14.7252C4.79175 16.1393 6.04954 15.7307 6.54572 15.4946C6.62383 14.8962 6.84733 14.4891 7.09541 14.2578C5.16786 14.0264 3.14194 13.2311 3.14194 9.68765C3.14194 8.67826 3.47827 7.85317 4.0352 7.20612C3.93756 6.9724 3.64463 6.03202 4.11114 4.75831C4.11114 4.75831 4.83804 4.51047 6.49798 5.70653C7.19233 5.50105 7.93008 5.39909 8.66783 5.39438C9.40558 5.39909 10.1433 5.50105 10.8377 5.70653C12.4868 4.51047 13.2137 4.75831 13.2137 4.75831C13.6802 6.03202 13.3873 6.9724 13.3005 7.20612C13.8538 7.85317 14.1901 8.67826 14.1901 9.68765C14.1901 13.2405 12.1613 14.0225 10.2301 14.2499C10.5339 14.5276 10.816 15.0946 10.816 15.9613C10.816 17.1989 10.8051 18.1934 10.8051 18.4938C10.8051 18.7361 10.957 19.0256 11.4018 18.933C14.8743 17.7189 17.3588 14.2507 17.3588 10.17C17.3588 5.06262 13.4726 0.921509 8.6794 0.921509Z" fill="white"/>
</svg>
