<svg width="19" height="19" viewBox="0 0 19 19" fill="none" xmlns="http://www.w3.org/2000/svg">
<path fill-rule="evenodd" clip-rule="evenodd" d="M2.47129 0.921509H16.3583C17.3131 0.921509 18.0942 1.73327 18.0942 2.72543V17.1568C18.0942 18.149 17.3131 18.9607 16.3583 18.9607H2.47129C1.51656 18.9607 0.735413 18.149 0.735413 17.1568V2.72543C0.735413 1.73327 1.51656 0.921509 2.47129 0.921509ZM3.33929 16.2549H5.94312V8.13725H3.33929V16.2549ZM4.64121 6.60399C3.77327 6.60399 3.07892 5.88242 3.07892 4.98046C3.07892 4.0785 3.77327 3.35693 4.64121 3.35693C5.50915 3.35693 6.2035 4.0785 6.2035 4.98046C6.2035 5.88242 5.50915 6.60399 4.64121 6.60399ZM12.8867 16.2548H15.4905V11.1137C15.4905 9.39993 14.1018 7.9568 12.4527 7.9568C11.6715 7.9568 10.7168 8.49797 10.2828 9.21954V8.13719H7.67902V16.2548H10.2828V11.4744C10.2828 10.7529 10.8904 10.1215 11.5847 10.1215C12.2791 10.1215 12.8867 10.7529 12.8867 11.4744V16.2548Z" fill="white"/>
</svg>
